# xmcd
#
# Track frame offsets:
#	150
#	19277
#	36602
#	50865
#	63752
#	79295
#	92877
#	107747
#	119845
#	135407
#	170937
#	186099
#	201373
#
# Disc length: 2786 seconds
#
# Revision: 1
# Processed by: cddbd v1.4PL0 Copyright (c) Steve Scherf et al.
# Submitted via: EasyCDDAExtractor 6.2.0.3
#
DISCID=ca0ae00d
DTITLE=Blues Brothers - Original Soundtrack Recording
DYEAR=1900
DGENRE=Blues
TTITLE0=she caught the katy
TTITLE1=peter gunn theme
TTITLE2=gimme some lovin'
TTITLE3=shake your tail feather
TTITLE4=everybody needs somebody to love
TTITLE5=the old landmark
TTITLE6=think
TTITLE7=theme from rawride
TTITLE8=minnie the moocher
TTITLE9=sweet home chicago
TTITLE10=jailhouse rock
TTITLE11=peter gunn theme (reprise)
TTITLE12=
EXTD=
EXTT0=
EXTT1=
EXTT2=
EXTT3=
EXTT4=
EXTT5=
EXTT6=
EXTT7=
EXTT8=
EXTT9=
EXTT10=
EXTT11=
EXTT12=
PLAYORDER=
